<?xml version="1.0" standalone="no"?>
<!DOCTYPE svg PUBLIC "-//W3C//DTD SVG 20010904//EN"
 "http://www.w3.org/TR/2001/REC-SVG-20010904/DTD/svg10.dtd">
<svg version="1.0" xmlns="http://www.w3.org/2000/svg"
 width="300.000000pt" height="93.000000pt" viewBox="0 0 300.000000 93.000000"
 preserveAspectRatio="xMidYMid meet">
<metadata>
Created by potrace 1.10, written by Peter Selinger 2001-2011
</metadata>
<g transform="translate(0.000000,93.000000) scale(0.100000,-0.100000)"
fill="#000000" stroke="none">
<path d="M2447 912 c-17 -18 -17 -21 0 -50 l17 -30 19 30 c18 30 18 31 0 50
-19 18 -20 18 -36 0z"/>
<path d="M10 792 c0 -2 7 -10 15 -18 12 -13 15 -55 15 -251 0 -206 -2 -239
-17 -255 -15 -17 -13 -18 68 -18 91 0 121 10 152 52 42 56 31 182 -19 214
l-24 16 25 20 c31 24 50 85 41 132 -9 48 -50 94 -89 100 -43 7 -167 13 -167 8z
m160 -52 c16 -16 20 -33 20 -85 0 -57 -3 -69 -25 -90 -47 -48 -55 -37 -55 85
0 103 1 110 20 110 11 0 29 -9 40 -20z m0 -250 c16 -16 20 -33 20 -91 0 -86
-11 -109 -50 -109 l-30 0 0 110 c0 103 1 110 20 110 11 0 29 -9 40 -20z"/>
<path d="M289 776 c20 -21 21 -34 21 -254 0 -219 -1 -233 -20 -252 l-20 -20
67 0 c52 0 64 3 55 12 -8 8 -12 52 -12 130 0 110 1 118 19 118 42 0 51 -25 51
-140 0 -77 -4 -110 -12 -113 -7 -3 19 -6 57 -6 52 0 66 2 53 10 -15 8 -18 25
-18 110 0 98 -1 101 -30 130 l-30 30 26 22 c50 43 51 161 2 207 -24 22 -48 27
-156 33 l-73 4 20 -21z m145 -32 c37 -36 34 -155 -4 -186 -45 -36 -50 -27 -50
92 0 102 1 110 19 110 11 0 27 -7 35 -16z"/>
<path d="M818 777 c17 -18 29 -68 62 -252 52 -295 47 -275 70 -275 11 0 20 3
20 8 0 4 7 54 15 112 8 58 15 111 15 119 0 33 10 0 25 -89 24 -143 25 -150 41
-150 8 0 14 6 14 13 0 26 69 484 76 501 4 9 14 16 23 14 14 -3 16 -31 19 -247
2 -216 0 -246 -14 -263 -16 -17 -15 -18 42 -18 32 0 54 4 48 8 -7 4 -13 80
-17 211 -3 111 -4 201 -1 198 3 -2 22 -79 44 -170 61 -261 56 -247 90 -247
l30 0 0 255 c0 240 1 255 20 273 19 18 18 18 -35 18 -52 -1 -67 -8 -45 -21 6
-4 10 -67 10 -157 0 -83 -2 -149 -4 -147 -3 2 -20 73 -39 157 -19 85 -37 155
-39 157 -2 2 -47 6 -100 7 -71 3 -94 1 -88 -8 10 -11 -20 -294 -30 -294 -3 0
-16 68 -29 150 -22 138 -26 150 -45 150 -12 0 -32 3 -46 7 -24 6 -24 5 -8 -13
25 -29 41 -135 32 -221 -3 -41 -10 -71 -13 -66 -4 4 -17 71 -30 148 -12 77
-23 140 -24 141 -1 1 -26 4 -56 7 l-54 6 21 -22z m138 -311 c3 -8 1 -23 -5
-33 -9 -16 -10 -16 -11 -1 0 9 -3 23 -6 32 -3 9 -1 16 5 16 7 0 14 -6 17 -14z"/>
<path d="M1540 778 c19 -18 20 -32 20 -258 0 -236 0 -239 -22 -254 -21 -15
-18 -16 55 -16 106 0 142 16 170 77 20 43 22 64 22 198 0 137 -2 154 -23 192
-31 60 -53 70 -154 75 -86 4 -88 4 -68 -14z m146 -43 c24 -37 36 -180 25 -297
-10 -106 -28 -148 -61 -148 -19 0 -20 8 -20 235 0 227 1 235 20 235 11 0 27
-11 36 -25z"/>
<path d="M1816 779 c11 -12 14 -60 14 -240 0 -252 2 -260 69 -280 48 -14 105
-5 132 22 18 18 19 34 19 243 0 205 2 225 19 248 l19 24 -54 0 c-52 -1 -66 -8
-44 -21 14 -8 13 -440 0 -466 -16 -30 -68 -26 -80 7 -13 34 -13 451 0 459 22
14 7 20 -49 20 -54 0 -58 -2 -45 -16z"/>
<path d="M2706 779 c21 -23 21 -565 0 -588 -13 -14 -8 -16 53 -16 l69 0 -19
24 c-18 22 -19 45 -19 286 0 242 1 264 19 286 l19 24 -68 0 c-62 0 -67 -2 -54
-16z"/>
<path d="M2871 777 c18 -17 19 -34 19 -292 0 -258 -1 -275 -19 -292 -19 -18
-17 -18 50 -18 38 0 69 1 69 3 0 2 -7 10 -15 18 -13 13 -15 59 -15 289 0 230
2 276 15 289 8 8 15 16 15 18 0 2 -31 3 -69 3 -67 0 -69 0 -50 -18z"/>
<path d="M627 764 c-43 -43 -52 -86 -52 -244 0 -135 2 -149 25 -195 30 -61 67
-82 119 -69 74 19 106 116 99 304 -5 122 -19 171 -59 209 -34 31 -98 29 -132
-5z m95 -26 c9 -17 13 -77 13 -213 0 -194 -7 -235 -40 -235 -33 0 -40 41 -40
230 0 189 8 240 39 240 9 0 21 -10 28 -22z"/>
<path d="M2120 770 c-15 -15 -20 -33 -20 -72 0 -58 17 -100 93 -231 67 -116
71 -177 12 -177 -34 0 -85 72 -85 120 0 11 -5 20 -11 20 -6 0 -8 -7 -5 -16 3
-9 6 -49 6 -90 l0 -74 66 0 c104 0 133 24 134 110 0 48 -6 66 -46 135 -109
188 -123 227 -89 255 33 27 79 -13 106 -92 l18 -53 1 93 0 92 -80 0 c-67 0
-83 -3 -100 -20z"/>
<path d="M2341 698 l0 -93 14 50 c8 28 14 53 15 56 0 10 41 49 50 49 5 0 10
-147 12 -347 3 -294 5 -353 19 -383 l16 -35 17 54 c13 46 16 107 16 383 0 203
4 328 10 328 9 0 50 -39 50 -49 1 -3 7 -28 15 -56 l14 -50 0 93 1 92 -125 0
-125 0 1 -92z"/>
<path d="M2538 203 c-34 -5 -37 -23 -4 -23 13 0 31 -3 40 -6 12 -4 16 0 16 15
0 12 -6 20 -12 20 -7 -1 -25 -4 -40 -6z"/>
<path d="M0 190 c0 -7 410 -10 1210 -10 800 0 1210 3 1210 10 0 7 -410 10
-1210 10 -800 0 -1210 -3 -1210 -10z"/>
</g>
</svg>
